<?xml version="1.0" encoding="UTF-8"?>
<svg width="1200pt" height="1200pt" version="1.1" viewBox="0 0 1200 1200" xmlns="http://www.w3.org/2000/svg">
 <path d="m381.6 805.2c115.2-14.398 240-51.602 304.8-156 20.398-33.602 56.398-48 92.398-48-18-34.801-52.801-51.602-104.4-44.398-94.801 10.801-205.2 110.4-301.2 45.602-80.398-54-40.801-157.2 34.801-202.8-22.801-51.602-22.801-112.8 8.3984-165.6 30-52.801 84-84 140.4-90 24 51.602 22.801 112.8-7.1992 165.6-14.398 24-32.398 43.199-54 58.801 19.199-7.1992 39.602-10.801 60-10.801 61.199 0 115.2 30 147.6 76.801-32.398 46.801-86.398 76.801-147.6 76.801-60 0-114-30-146.4-75.602-48 37.199-73.199 103.2-19.199 140.4 75.602 50.398 196.8-40.801 280.8-51.602 73.199-8.3984 122.4 21.602 142.8 79.199 75.602 19.199 139.2 99.602 66 214.8-99.605 163.2-204 213.6-399.61 234-258 26.402-222-231.6-98.398-247.2zm72-414m-30 501.6c139.2 2.3984 270-69.602 340.8-188.4 15.602-25.199-24-49.199-39.602-24-63.602 105.6-178.8 169.2-301.2 166.8-30-0.003906-30 45.598 0 45.598z" fill="#70d258" fill-rule="evenodd"/>
</svg>
