<?xml version="1.0" encoding="UTF-8"?>
<svg width="1200pt" height="1200pt" version="1.1" viewBox="0 0 1200 1200" xmlns="http://www.w3.org/2000/svg">
 <path d="m1062.1 279.75c-101.68-146.25-270.82-242.25-462.05-242.25-191.21 0-360.33 95.973-462.02 242.2-0.30469 0.30078-0.45703 0.71875-0.74219 1.043-62.82 90.77-99.742 200.76-99.742 319.26 0 118.57 36.969 228.62 99.859 319.42 0.23828 0.26172 0.36328 0.60938 0.61328 0.85938 101.68 146.23 270.81 242.22 462.03 242.22 310.16 0 562.5-252.34 562.5-562.5 0-118.93-37.199-229.27-100.43-320.23-0.007812-0.007813-0.011718-0.019532-0.019531-0.027344zm-23.566 608.49h-186.61c23.977-78.859 38.207-170.56 39.812-269.48h232.84c-3.5078 99.266-34.652 191.58-86.039 269.48zm-963.01-269.48h232.84c1.6055 98.922 15.836 190.62 39.812 269.48h-186.61c-51.387-77.906-82.531-170.22-86.039-269.48zm86.043-307h186.61c-23.977 78.863-38.207 170.57-39.812 269.5h-232.84c3.5078-99.273 34.656-191.59 86.043-269.5zm457.23-37.5v-197.6c71.434 11.348 135.71 86.684 179.03 197.6zm192.46 37.5c25.559 78.398 41.203 171 42.98 269.5h-235.44v-269.5zm-229.96-235.1v197.6h-179.03c43.32-110.91 107.59-186.25 179.03-197.6zm0 235.1v269.5h-235.44c1.7773-98.5 17.418-191.1 42.977-269.5zm-235.44 307h235.44v269.48h-192.46c-25.559-78.395-41.199-170.98-42.977-269.48zm235.44 306.98v197.61c-71.434-11.348-135.71-86.688-179.03-197.61zm37.5 197.61v-197.61h179.03c-43.32 110.92-107.6 186.26-179.03 197.61zm0-235.11v-269.48h235.44c-1.7773 98.5-17.418 191.09-42.977 269.48zm272.94-306.98c-1.6055-98.926-15.836-190.63-39.812-269.5h186.61c51.387 77.91 82.535 170.22 86.043 269.5zm119.58-307h-171.9c-28.75-79.145-67.879-142.75-113.95-184 114.68 28.223 214.59 94.219 285.85 184zm-536.69-184c-46.066 41.25-85.195 104.86-113.95 184h-171.9c71.262-89.781 171.17-155.78 285.85-184zm-285.85 835.48h171.91c28.75 79.148 67.879 142.76 113.95 184.01-114.68-28.223-214.59-94.227-285.86-184.01zm536.7 184.01c46.07-41.254 85.199-104.86 113.95-184.01h171.91c-71.266 89.785-171.17 155.79-285.86 184.01z" fill="#fff"/>
</svg>
