<?xml version="1.0" encoding="UTF-8"?>
<svg width="1200pt" height="1200pt" version="1.1" viewBox="0 0 1200 1200" xmlns="http://www.w3.org/2000/svg">
 <g fill="#fff">
  <path d="m1008 60h-816c-73.199 0-132 55.199-132 123.6v620.4c0 68.398 58.801 123.6 132 123.6h86.398v183.6c0 10.801 7.1992 21.602 18 26.398 4.8008 2.3984 8.3984 2.3984 13.199 2.3984 7.1992 0 14.398-2.3984 20.398-6l272.4-206.4h405.61c73.199 0 132-55.199 132-123.6v-620.4c0-68.402-58.801-123.6-132-123.6zm70.801 742.8c0 36-31.199 64.801-69.602 64.801h-418.8c-7.1992 0-14.398 2.3984-20.398 6l-229.2 174v-151.2c0-15.602-14.398-28.801-31.199-28.801h-117.6c-38.398 0-69.602-28.801-69.602-64.801v-616.8c0-36 31.199-64.801 69.602-64.801h818.4c38.398 0 69.602 28.801 69.602 64.801v616.8z"/>
  <path d="m414 315.6h73.199v350.4h-73.199z"/>
  <path d="m525.6 378h105.6v288h73.199v-288h105.6v-62.398h-284.4z"/>
 </g>
</svg>
