<?xml version="1.0" encoding="UTF-8"?>
<svg width="1200pt" height="1200pt" version="1.1" viewBox="0 0 1200 1200" xmlns="http://www.w3.org/2000/svg">
 <path d="m153.84 566.78c-65.371-32.141-107.09-98.551-107.09-171.79 0-89.289 61.941-166.77 148.71-186.5l408.77-168.82c43.285-25.219 93.621-39.676 147.34-39.676 161.88 0 293.13 131.25 293.13 293.13 0 139.35-98.27 259.57-234.43 287.26v169.45h115.07l103.88-103.89v-71.438h166.48v617.76h-166.48v-93.41l-103.88-103.89h-115.07v205.03h-638.28c-55.992-66.031-111.89-132.16-167.71-198.32v-434.88h149.55zm842.91-273.65c0 24.246-19.648 43.926-43.91 43.926-24.195 0-43.91-19.746-43.91-43.926 0-24.246 19.68-43.91 43.91-43.91 24.18 0 43.91 19.73 43.91 43.91zm-19.484 0c0-13.531-10.895-24.41-24.426-24.41-13.484 0-24.426 10.93-24.426 24.41 0 13.531 10.895 24.426 24.426 24.426 13.5 0 24.426-10.945 24.426-24.426zm-225.68 245.18c-24.215 0-43.926-19.695-43.926-43.91 0-24.246 19.68-43.91 43.926-43.91 24.18 0 43.91 19.715 43.91 43.91 0 24.246-19.664 43.91-43.91 43.91zm0-19.484c13.484 0 24.41-10.945 24.41-24.426 0-13.531-10.895-24.426-24.41-24.426-13.484 0-24.426 10.945-24.426 24.426 0 13.531 10.895 24.426 24.426 24.426zm-245.18-225.7c0-24.246 19.68-43.91 43.91-43.91 24.164 0 43.926 19.73 43.926 43.91 0 24.23-19.68 43.926-43.926 43.926-24.195 0-43.91-19.73-43.91-43.926zm19.5 0c0 13.551 10.863 24.426 24.41 24.426 13.5 0 24.426-10.945 24.426-24.426 0-13.531-10.895-24.41-24.426-24.41-13.465 0-24.41 10.93-24.41 24.41zm225.68-245.16c24.195 0 43.91 19.715 43.91 43.91 0 24.262-19.664 43.91-43.91 43.91-24.215 0-43.926-19.695-43.926-43.91 0-24.246 19.68-43.91 43.926-43.91zm0 19.484c-13.484 0-24.426 10.945-24.426 24.426 0 13.531 10.895 24.426 24.426 24.426 13.484 0 24.41-10.945 24.41-24.426 0-13.531-10.895-24.426-24.41-24.426zm-495.69 137.11c65.652 6.082 123.38 45.773 152.96 104.37l49.629-11.688c-0.74219-78.953 29.703-156.77 86.535-212.09zm222.04 88.578c0 148.76 121.71 270.58 270.11 273.61 153.01 0.875 277.19-120.23 277.19-273.61 0-151.11-122.55-273.65-273.65-273.65-148.61 0-273.65 125.62-273.65 273.65zm-411.68 101.86c0 100.84 81.426 172.16 173.99 171.77 97.594-2.1602 167.46-76.742 169.56-169.54 0.39453-92.188-71.402-174.01-171.77-174.01-94.695 0-171.79 77.93-171.79 171.79zm350.62-67.926c8.457 23.141 12.609 45.359 12.41 70.398-1.1367 71.57-41.324 137.02-107.05 169.31h324.02c-104.73-40.316-177.79-137.5-186.85-249.75l-42.527 10.039zm334.7 92.121c-69.574 0-126.06-56.488-126.06-126.06 0-69.605 56.453-126.06 126.06-126.06 69.543 0 126.06 56.504 126.06 126.06 0 69.625-56.438 126.06-126.06 126.06zm0-19.5c58.875 0 106.56-47.703 106.56-106.56 0-58.91-47.668-106.56-106.56-106.56-58.844 0-106.56 47.719-106.56 106.56 0 58.926 47.637 106.56 106.56 106.56zm-513.54 60.062c35.801 0 64.762-28.961 64.762-64.762 0-35.816-28.961-64.762-64.762-64.762-35.816 0-64.762 28.945-64.762 64.762 0 35.801 28.945 64.762 64.762 64.762zm0 19.484c-46.48 0-84.262-37.762-84.262-84.242 0-46.48 37.777-84.262 84.262-84.262 46.465 0 84.242 37.777 84.242 84.262 0 46.48-37.777 84.242-84.242 84.242zm572.23 290.08v206.15h123.12l95.816 95.816v-397.78l-95.816 95.816h-123.12zm238.44-142.86 8.125-8.1406h57.625v508.15h-57.625l-8.125-8.1406v54.426h127.48v-578.75h-127.48zm0 464.3 16.203 16.219h30.047v-469.18h-30.047l-16.203 16.219zm-896.8-404.11h560.84v19.484h-560.84zm136.46 153.59 120.08 189.4h261.07v-189.4zm97.02 189.4-120.08-189.4h-120.31v128.2l105.21 61.199zm303.63-208.89v228.39h-443.96l-119.55-69.559v-158.83zm101.73-234.5h-767v408.31l157.2 185.93h609.8v-594.24z" fill="#fff"/>
</svg>
